<?xml version="1.0" encoding="utf-8"?>
<!-- Generator: Adobe Illustrator 19.2.1, SVG Export Plug-In . SVG Version: 6.00 Build 0)  -->
<svg version="1.1" xmlns="http://www.w3.org/2000/svg" xmlns:xlink="http://www.w3.org/1999/xlink" x="0px" y="0px"
	 viewBox="0 0 1769.3 329.5" style="enable-background:new 0 0 1769.3 329.5;" xml:space="preserve">
<style type="text/css">
	.st0{fill:none;}
	.st1{fill:#666666;}
</style>
<g id="Guide">
</g>
<g id="Text">
	<g>
		<rect x="-6" y="4.3" class="st0" width="1793.6" height="324.3"/>
		<path class="st1" d="M136.2,43.9v282.6H94.8V43.9h-90V4.3h221.4v39.6H136.2z"/>
		<path class="st1" d="M259.1,326.5h-45.9L334.7,4.3h46.8L503,326.5h-45.9l-31-87.3H290.6L259.1,326.5z M357.2,55.2l-52.7,145.4
			h107.1L359,55.2H357.2z"/>
		<path class="st1" d="M725.7,4.3h53.6v1.8L659.6,144.3l127.8,180.5v1.8h-50.8L631.7,176.2l-49.5,57.1v93.2h-41.4V4.3h41.4v166h1.8
			L725.7,4.3z"/>
		<path class="st1" d="M1008.8,4.3v39.6H862.1v102.1h132.3v38.7H862.1v102.2h146.7v39.6H820.7V4.3H1008.8z"/>
		<path class="st1" d="M1064.6,326.5V4.3h116.5c25.5,0,47.4,8.4,65.7,25.2c18.3,16.5,27.4,37.4,27.4,62.5c0,31.8-14.6,54.2-43.6,67
			v1.8c16.5,5.4,29.7,14.8,39.6,28.1c9.9,13.4,14.9,28.6,14.9,45.7c0,26.4-9.6,48.3-28.8,65.7c-18.6,17.4-41.6,26.1-68.8,26.1
			H1064.6z M1106,43.9v98.6h75.2c14.7,0,27-5,36.9-14.9c9.9-10.2,14.9-21.7,14.9-34.6c0-12.6-4.8-24-14.4-34.2
			c-9.6-9.9-21.5-14.9-35.5-14.9H1106z M1106,181.2v105.8h83.2c15,0,27.7-5.2,38.2-15.8c10.2-10.5,15.3-23,15.3-37.4
			c0-14.1-5.3-26.4-15.8-36.9c-10.5-10.5-23.7-15.8-39.6-15.8H1106z"/>
		<path class="st1" d="M1520,4.3v39.6h-146.7v102.1h132.3v38.7h-132.3v102.2H1520v39.6h-188.1V4.3H1520z"/>
		<path class="st1" d="M1763.9,4.3v39.6h-146.7v102.1h132.3v38.7h-132.3v102.2h146.7v39.6h-188.1V4.3H1763.9z"/>
	</g>
</g>
</svg>
