<?xml version="1.0" encoding="utf-8"?>
<!-- Generator: Adobe Illustrator 19.2.1, SVG Export Plug-In . SVG Version: 6.00 Build 0)  -->
<svg version="1.1" id="Layer_1" xmlns="http://www.w3.org/2000/svg" xmlns:xlink="http://www.w3.org/1999/xlink" x="0px" y="0px"
	 viewBox="0 0 435.5 454.9" style="enable-background:new 0 0 435.5 454.9;" xml:space="preserve">
<style type="text/css">
	.st0{fill:#00BFA5;}
	.st1{fill:none;stroke:#00BFA5;stroke-miterlimit:10;}
	.st2{fill:#AA00FF;}
	.st3{fill:none;stroke:#AA00FF;stroke-miterlimit:10;}
	.st4{fill:#0091EA;}
	.st5{fill:none;stroke:#0091EA;stroke-miterlimit:10;}
</style>
<g>
	<path class="st0" d="M173.1,228.9c11.9,6.9,21.7,23.8,21.7,37.5v165c0,13.8-9.7,19.4-21.7,12.5L30.3,361.4
		c-11.9-6.9-21.7-23.8-21.7-37.5l0-165c0-13.8,9.7-19.4,21.7-12.5L173.1,228.9z"/>
	<path class="st1" d="M173.1,228.9c11.9,6.9,21.7,23.8,21.7,37.5v165c0,13.8-9.7,19.4-21.7,12.5L30.3,361.4
		c-11.9-6.9-21.7-23.8-21.7-37.5l0-165c0-13.8,9.7-19.4,21.7-12.5L173.1,228.9z"/>
</g>
<g>
	<path class="st2" d="M244.3,431.4c0,13.8,9.7,19.4,21.7,12.5l142.9-82.5c11.9-6.9,21.7-23.8,21.7-37.5v-165
		c0-13.8-9.7-19.4-21.7-12.5l-142.9,82.5c-11.9,6.9-21.7,23.8-21.7,37.5V431.4z"/>
	<path class="st3" d="M244.3,431.4c0,13.8,9.7,19.4,21.7,12.5l142.9-82.5c11.9-6.9,21.7-23.8,21.7-37.5v-165
		c0-13.8-9.7-19.4-21.7-12.5l-142.9,82.5c-11.9,6.9-21.7,23.8-21.7,37.5V431.4z"/>
</g>
<g>
	<path class="st4" d="M197.6,203.9c11.9,6.9,31.4,6.9,43.3,0l142.9-82.5c11.9-6.9,11.9-18.1,0-25L240.9,14
		c-11.9-6.9-31.4-6.9-43.3,0L54.8,96.4c-11.9,6.9-11.9,18.1,0,25L197.6,203.9z"/>
	<path class="st5" d="M197.6,203.9c11.9,6.9,31.4,6.9,43.3,0l142.9-82.5c11.9-6.9,11.9-18.1,0-25L240.9,14
		c-11.9-6.9-31.4-6.9-43.3,0L54.8,96.4c-11.9,6.9-11.9,18.1,0,25L197.6,203.9z"/>
</g>
<g>
</g>
<g>
</g>
<g>
</g>
<g>
</g>
<g>
</g>
<g>
</g>
<g>
</g>
<g>
</g>
<g>
</g>
<g>
</g>
<g>
</g>
<g>
</g>
<g>
</g>
<g>
</g>
<g>
</g>
</svg>
